<svg xmlns="http://www.w3.org/2000/svg" width="1080" height="1080" viewBox="0 0 1080 1080">
  <defs>
    <radialGradient id="glow" cx="50%" cy="50%" r="50%">
      <stop offset="0%" stop-color="#C6A962" stop-opacity="0.08"/>
      <stop offset="70%" stop-color="#C6A962" stop-opacity="0"/>
    </radialGradient>
    <linearGradient id="line-fade" x1="0" y1="0" x2="1" y2="0">
      <stop offset="0%" stop-color="#C6A962" stop-opacity="0"/>
      <stop offset="50%" stop-color="#C6A962" stop-opacity="1"/>
      <stop offset="100%" stop-color="#C6A962" stop-opacity="0"/>
    </linearGradient>
  </defs>
  <rect width="1080" height="1080" fill="#000000"/>
  <rect width="1080" height="1080" fill="url(#glow)"/>
  <rect x="400" y="260" width="280" height="280" rx="24" ry="24" fill="none" stroke="#C6A962" stroke-width="3"/>
  <rect x="410" y="270" width="260" height="260" rx="16" ry="16" fill="none" stroke="#C6A962" stroke-width="1" opacity="0.35"/>
  <path d="M 510 355 C 490 355 470 370 470 400 C 470 430 490 445 510 445" fill="none" stroke="#C6A962" stroke-width="6" stroke-linecap="round"/>
  <path d="M 540 355 L 590 355 M 540 400 L 580 400 M 540 445 L 590 445 M 540 355 L 540 445" fill="none" stroke="#C6A962" stroke-width="6" stroke-linecap="round" stroke-linejoin="round"/>
  <rect x="500" y="575" width="80" height="3" rx="1.5" fill="url(#line-fade)"/>
  <text x="540" y="660" text-anchor="middle" font-family="Inter, -apple-system, Helvetica Neue, Arial, sans-serif" font-size="64" font-weight="700" letter-spacing="22" fill="#FFFFFF">CRYSTAL ESTATES</text>
  <text x="540" y="720" text-anchor="middle" font-family="Inter, -apple-system, Helvetica Neue, Arial, sans-serif" font-size="22" font-weight="500" letter-spacing="5" fill="#C6A962">PREMIUM REAL ESTATE CONSULTANCY</text>
</svg>